<svg id="Layer_1" xmlns="http://www.w3.org/2000/svg" viewBox="0 0 1000 1000"><style>.st0{fill:#aeb5bd}.st1{fill:#fff}.st2{font-family:&apos;Poppins-Bold&apos;}.st3{font-size:150.12px}.st4{fill:none;stroke:#fff;stroke-width:12;stroke-miterlimit:10}.st5{fill:#4d51a2}.st6{fill:none;stroke:#ead8b7;stroke-width:10;stroke-miterlimit:10}</style><path class="st0" d="M700.7 500.2c-8.4 1.5-16.8 2.7-25.3 3.8 5.3-.7 10.6-1.4 16-2.1-50.6 6.7-101.6 10.4-152.2 16.9-29.4 3.7-58.9 7.6-87.9 13.9-25.4 5.5-49.4 14.4-73.6 23.8-34.1 13.2-68.6 26.5-105 31.5 5.3-.7 10.6-1.4 16-2.1-17.4 2.3-35 2.8-52.4.6 5.3.7 10.6 1.4 16 2.1-12.5-1.7-24.6-4.8-36.3-9.6 4.8 2 9.6 4 14.3 6-9.2-4-17.8-8.9-25.7-15 4 3.1 8.1 6.3 12.1 9.4-8.6-6.7-16.2-14.4-22.9-23 3.1 4 6.3 8.1 9.4 12.1-7.6-10.1-13.8-21-18.7-32.6 2 4.8 4 9.6 6 14.3-6.4-15.5-10.6-31.7-12.9-48.2.7 5.3 1.4 10.6 2.1 16-3.1-23.2-2.7-46.9.4-70.1-.7 5.3-1.4 10.6-2.1 16 3.1-22.2 8.8-44 17.4-64.7-2 4.8-4 9.6-6 14.3 7.7-18.1 17.5-35 29.4-50.6-3.1 4-6.3 8.1-9.4 12.1 11.2-14.5 24.1-27.3 38.6-38.6-4 3.1-8.1 6.3-12.1 9.4 15.8-12.1 33.1-22.1 51.4-29.9-4.8 2-9.6 4-14.3 6 18.7-7.8 38.2-13.2 58.3-15.9-5.3.7-10.6 1.4-16 2.1 17.6-2.2 35.3-2.3 52.9 0-5.3-.7-10.6-1.4-16-2.1 21.7 3 42.7 9.4 62.8 17.9-4.8-2-9.6-4-14.3-6 47.1 20 89.1 50 135.9 70.5 26.9 11.8 54.3 22 82.4 30.8 23.9 7.4 47.9 14.1 71.9 21.2 26.5 7.9 52.8 16.4 78.3 27.1-4.8-2-9.6-4-14.3-6 24 10.2 47.1 22.5 67.9 38.4-4-3.1-8.1-6.3-12.1-9.4 5.8 4.5 11.6 9.1 16.3 14.8-3.1-4-6.3-8.1-9.4-12.1 1.3 1.7 2.3 3.4 3.3 5.3-2-4.8-4-9.6-6-14.3.8 1.9 1.3 3.7 1.6 5.8-.7-5.3-1.4-10.6-2.1-16 .1 1.6.1 3-.1 4.6.7-5.3 1.4-10.6 2.1-16-.3 1.6-.7 3-1.3 4.4 2-4.8 4-9.6 6-14.3-1.3 3-3 5.7-5.1 8.3 3.1-4 6.3-8.1 9.4-12.1-5.5 6.7-12.2 12.4-19.1 17.7 4-3.1 8.1-6.3 12.1-9.4-14.6 11.2-30.7 20.1-47.6 27.2 4.8-2 9.6-4 14.3-6-27 11-55.5 17.8-84.4 21.8 5.3-.7 10.6-1.4 16-2.1-55.6 7.4-111.8 4.7-167.8 5.5-55.8.8-111.6 4.7-166.9 11.6-20.2 2.5-40.4 5.3-60.5 8.4-15.6 2.4-31.2 5.6-46.9 7.7 5.3-.7 10.6-1.4 16-2.1-9.5 1.2-18.9 1.7-28.4.4 5.3.7 10.6 1.4 16 2.1-5.6-.9-10.9-2.3-16.2-4.5 4.8 2 9.6 4 14.3 6-4.7-2.1-9.1-4.7-13.2-7.8 4 3.1 8.1 6.3 12.1 9.4-4.3-3.4-8.2-7.2-11.6-11.5 3.1 4 6.3 8.1 9.4 12.1-3.9-5-7-10.4-9.6-16.2 2 4.8 4 9.6 6 14.3-2.4-5.8-4-11.7-4.8-17.9.7 5.3 1.4 10.6 2.1 16-.8-6.7-.6-13.5.3-20.2-.7 5.3-1.4 10.6-2.1 16 1.4-9.8 4.3-19.2 8-28.3-2 4.8-4 9.6-6 14.3 11.1-26 28-49.7 45.2-72-3.1 4-6.3 8.1-9.4 12.1 30.4-39.1 65.8-74.1 104.9-104.4-4 3.1-8.1 6.3-12.1 9.4 8-6.1 15.8-11.8 25.1-15.8-4.8 2-9.6 4-14.3 6 5.2-2.1 10.6-3.8 16.1-4.6-5.3.7-10.6 1.4-16 2.1 3.1-.4 6.2-.5 9.3-.2-5.3-.7-10.6-1.4-16-2.1 2.1.3 4.1.8 6.1 1.6-4.8-2-9.6-4-14.3-6 1.6.7 3 1.5 4.3 2.6-4-3.1-8.1-6.3-12.1-9.4 1.1.9 2 1.9 2.8 3-3.1-4-6.3-8.1-9.4-12.1.7 1.1 1.3 2.1 1.9 3.2-2-4.8-4-9.6-6-14.3.6 1.5.9 2.8 1.2 4.4-.7-5.3-1.4-10.6-2.1-16 .1 1.5.1 2.9-.1 4.5.7-5.3 1.4-10.6 2.1-16-.4 2.1-.9 4-1.7 6 2-4.8 4-9.6 6-14.3-2 4.7-4.8 8.8-7.8 12.9 3.1-4 6.3-8.1 9.4-12.1-27.5 35.2-59.9 66.2-89.5 99.6-17.5 19.8-34.4 40.5-49.1 62.5-14.2 21.2-25.4 44.5-33.7 68.6-7.1 20.5-10.4 42-5.3 63.5 5.2 22.2 20.3 38.9 38.4 51.5 10.7 7.5 23.9 12.5 36.8 14.5 19.4 3 36.7 3.8 56.1-1.5 29.5-8 54.9-27.9 74.2-51.1 15.7-18.9 30.6-38.4 46.5-57.1 18.8-22.1 38.3-43.6 58.4-64.6 10.3-10.8 20.8-21.4 31.5-31.8 10-9.8 19.8-20 30.8-28.7-4 3.1-8.1 6.3-12.1 9.4 4.2-3.2 8.6-6 13.4-8.1-4.8 2-9.6 4-14.3 6 3.5-1.4 7-2.4 10.7-2.9-5.3.7-10.6 1.4-16 2.1 3.6-.3 7.1-.2 10.7.2-5.3-.7-10.6-1.4-16-2.1 5.9 1 11.5 2.9 17 5.2-4.8-2-9.6-4-14.3-6 28.3 12.4 55.7 27.1 83.4 40.7 28.1 13.8 56.3 27.6 84.4 41.4V389.6c-23.9 14.3-48.8 26.9-74.5 37.8 4.8-2 9.6-4 14.3-6-51.8 21.6-106.5 36.4-162.3 44 5.3-.7 10.6-1.4 16-2.1-11.3 1.5-22.5 2.7-33.9 3.7 17.3 9.9 34.5 19.8 51.8 29.7-.7-1.1-1.2-2.2-1.8-3.4 2 4.8 4 9.6 6 14.3-.4-1.2-.7-2.2-.9-3.4.7 5.3 1.4 10.6 2.1 16-.2-1.6-.2-3 0-4.6-.7 5.3-1.4 10.6-2.1 16 .3-1.6.7-3 1.3-4.5-2 4.8-4 9.6-6 14.3 1.1-2.4 2.4-4.5 3.9-6.6-3.1 4-6.3 8.1-9.4 12.1 3-3.8 6.6-7.1 10.4-10.1-4 3.1-8.1 6.3-12.1 9.4 10.5-8 22.6-13.2 34.5-18.9 13.8-6.6 27.5-13.1 41.3-19.7 27.5-13.1 55-26.2 82.5-39.4 12.9-6.2 23.9-22.5 27.6-35.9 4-14.4 2.2-33.5-6-46.2-8.3-12.8-20.6-24.1-35.9-27.6-5.3-.7-10.6-1.4-16-2.1-10.8 0-20.9 2.8-30.3 8.2-38.3 18.3-76.5 36.5-114.8 54.8-9.3 4.4-18.6 8.6-27.8 13.3-11.3 5.8-21.9 13.7-31.4 22.1-28.8 25.3-39.4 68.6-18.8 102.4 10.4 17 30.9 31.4 51.8 29.7 42.7-3.5 85.4-10.2 126.8-21 40.9-10.7 80.6-25.8 118.9-43.6 18.9-8.8 37.4-18.6 55.3-29.3 18.2-10.9 29.7-30.5 29.7-51.8 0-19.9-11.1-42.7-29.7-51.8-33.8-16.5-67.5-33.1-101.3-49.6-16.6-8.1-33.2-16.3-49.7-24.4-12.1-5.9-24.2-11.8-36.9-16.3-3.6-1.3-7.4-2.3-11.2-2.9-12.7-2.2-22.2-3-34.6-1.3-14.5 1.9-28.1 6.1-40.7 14-10.2 6.5-19.7 14.4-28.5 22.8-12.7 12-25.2 24.2-37.4 36.6-24.8 25.1-48.6 51-71.5 77.8-12.7 14.9-25.2 30.1-37.3 45.5-10.1 12.8-20.2 25.6-33.1 35.7 4-3.1 8.1-6.3 12.1-9.4-5.4 4.1-11.1 7.5-17.3 10.3 4.8-2 9.6-4 14.3-6-4.9 2.1-9.9 3.5-15.2 4.2 5.3-.7 10.6-1.4 16-2.1-5.6.7-11.1.7-16.7 0 5.3.7 10.6 1.4 16 2.1-5-.7-9.7-2-14.4-3.9 4.8 2 9.6 4 14.3 6-3.2-1.4-6.2-3.1-9-5.2 4 3.1 8.1 6.3 12.1 9.4-2-1.6-3.8-3.4-5.4-5.4 3.1 4 6.3 8.1 9.4 12.1-1.3-1.7-2.3-3.5-3.2-5.5 2 4.8 4 9.6 6 14.3-.8-2-1.3-3.9-1.6-5.9.7 5.3 1.4 10.6 2.1 16-.3-3.1-.3-6.1.1-9.2-.7 5.3-1.4 10.6-2.1 16 1.8-11.3 5.9-22.4 10.3-32.9-2 4.8-4 9.6-6 14.3 9.7-22.7 23.1-43.4 38.1-62.9-3.1 4-6.3 8.1-9.4 12.1 31.4-40.4 69-75.4 102-114.4 14.5-17.1 28.8-33.8 35.8-55.5 10.7-33.1-4.2-72-34.7-89-21.5-12-46.2-13.1-69.7-7.1-9.2 2.3-18.2 6.6-26.7 10.5-5 2.3-9.8 5.1-14.3 8.4-26.2 19.1-51.3 40-74.4 62.7-22.8 22.5-43.1 46.9-62.5 72.3-8.2 10.7-16 21.8-23.4 33.1-10.4 16.1-18.6 32.7-25.8 50.5-7 17.2-10.7 35.9-11 54.5-.3 21.4 5.4 40.2 14.1 59.3 9.1 20 24.8 35.2 42.2 48 18.9 13.9 42.2 19.5 65.3 21.1 21.8 1.5 44-3.9 65.4-7.6 17.3-2.9 34.7-5.6 52.2-7.9-5.3.7-10.6 1.4-16 2.1 65.7-8.8 131.9-13.2 198.1-13.4 68.3-.2 137.3 1.5 204.2-14.8 13.8-3.4 27.5-7.6 40.7-12.8 16.9-6.7 33.8-13.9 49.4-23.4 15.4-9.4 30.3-20.5 43.2-33.1 11.8-11.7 20.2-24.9 25.7-40.5.5-1.5.9-2.9 1.3-4.4 1.3-6.1 2.2-12.8 2.4-19 .3-13.4-4-25.9-9.9-37.6-3.5-6.8-8.7-13-13.7-18.6-2.3-2.7-4.9-5.1-7.7-7.4-8.3-7-16.9-13.6-25.7-20-10.3-7.4-21.2-14.1-32.4-20-26.9-14.3-55.6-25.6-84.5-35.3-50.9-17.1-103.4-29.1-153.7-48.1-6.1-2.3-12.1-4.7-18.1-7.2 4.8 2 9.6 4 14.3 6-36.3-15.4-69.6-36.4-104.3-54.9-21.5-11.5-43.8-21.7-66.8-30-23.2-8.4-47.2-12.8-71.8-15-48.3-4.4-96.4 8-139.9 28-21.5 9.9-40.3 23.2-58.8 37.8-18.9 14.9-33.8 32.8-48.2 51.9-14.7 19.6-24.8 41.2-34.1 63.8-7.3 17.7-12.5 36.3-15.6 55.3-7.4 44.8-8.3 90.1 3.3 134.3 2.1 8.1 4.8 16 8 23.7 4.9 11.9 9.7 23.8 16.4 34.8 10.7 17.7 24.3 34.6 40.6 47.4 10.5 8.2 20.6 16.1 32.5 21.9 13 6.3 26.6 12 40.7 15.3 24.9 5.9 51.2 7.8 76.6 5.1 26.8-2.8 52.7-7.9 78.3-16.3 21.5-7 42.5-15.6 63.6-23.6 15.8-6 31.6-11.7 48-15.8 15.5-3.8 31.1-6.7 46.9-9.2 8.5-1.4 17.1-2.6 25.7-3.8-5.3.7-10.6 1.4-16 2.1 51.1-6.9 102.6-10.7 153.8-17.1 16.9-2.1 33.9-4.3 50.7-7.2 14-2.4 29-15.8 35.9-27.6 7.5-12.9 10.7-31.8 6-46.2-4.7-14.5-13.7-28.5-27.6-35.9-4.8-2-9.6-4-14.3-6-10.5-2.6-21.2-2.6-31.8.3z"/><text transform="matrix(1.0383 0 0 1 510.57 408.044)" class="st1 st2 st3">R</text><path class="st4" d="M293.7 212.1h523V806h-523z"/><path transform="rotate(90 450.63 435.938)" class="st4" d="M226.8 69.8h447.8V802H226.8z"/><text transform="matrix(1.0383 0 0 1 131.175 402.81)" class="st1 st2 st3">D</text><text transform="matrix(1.0383 0 0 1 345.48 408.044)" class="st1 st2 st3">O</text><text transform="matrix(1.0383 0 0 1 358.99 557.652)" class="st1 st2 st3">T</text><text transform="matrix(1.0383 0 0 1 501.85 557.652)" class="st1 st2 st3">H</text><text transform="matrix(1.0383 0 0 1 654.164 557.652)" class="st1 st2 st3">Y</text><text transform="matrix(1.0383 0 0 1 646.816 408.043)" class="st1 st2 st3">O</text><path class="st5" d="M164.9 448.9c0-1.7-.3.4.1-1.1 0 0 .7-2.3.2-1 .3-.7.7-1.3 1.1-1.9-.6 1 .5-.6.7-.7.2-.2 1.8-1.3.7-.7.6-.4 1.3-.8 1.9-1.1-1 .4.3 0 .7-.1.4-.1.7-.2 1.1-.2-.7.1-.6.2.3.1 4.1-.1 7.5-3.4 7.5-7.5 0-4-3.4-7.6-7.5-7.5-12.1.3-21.5 9.7-21.8 21.8-.1 4.1 3.5 7.5 7.5 7.5 4.2-.1 7.4-3.5 7.5-7.6z"/><path class="st5" d="M193.5 448.9c-.3-12.1-9.7-21.5-21.8-21.8-4.1-.1-7.5 3.5-7.5 7.5 0 4.2 3.4 7.4 7.5 7.5 1.7 0-.4-.3 1.1.1 0 0 2.3.7 1 .2.7.3 1.3.7 1.9 1.1-1-.6.6.5.7.7.2.2 1.3 1.8.7.7.4.6.8 1.3 1.1 1.9-.4-1 0 .3.1.7.1.4.2.7.2 1.1-.1-.7-.2-.6-.1.3.1 4.1 3.4 7.5 7.5 7.5s7.7-3.4 7.6-7.5z"/><g><path class="st5" d="M178.5 448.9c.3 12.1 9.7 21.5 21.8 21.8 4.1.1 7.5-3.5 7.5-7.5 0-4.2-3.4-7.4-7.5-7.5-1.7 0 .4.3-1.1-.1 0 0-2.3-.7-1-.2-.7-.3-1.3-.7-1.9-1.1 1 .6-.6-.5-.7-.7-.2-.2-1.3-1.8-.7-.7-.4-.6-.8-1.3-1.1-1.9.4 1 0-.3-.1-.7-.1-.4-.2-.7-.2-1.1.1.7.2.6.1-.3-.1-4.1-3.4-7.5-7.5-7.5s-7.7 3.4-7.6 7.5z"/><path class="st5" d="M207.1 448.9c0 1.7.3-.4-.1 1.1 0 0-.7 2.3-.2 1-.3.7-.7 1.3-1.1 1.9.6-1-.5.6-.7.7-.2.2-1.8 1.3-.7.7-.6.4-1.3.8-1.9 1.1 1-.4-.3 0-.7.1-.4.1-.7.2-1.1.2.7-.1.6-.2-.3-.1-4.1.1-7.5 3.4-7.5 7.5 0 4 3.4 7.6 7.5 7.5 12.1-.3 21.5-9.7 21.8-21.8.1-4.1-3.5-7.5-7.5-7.5-4.2.1-7.4 3.5-7.5 7.6z"/></g><g><path class="st6" d="M504.7 684.8l46.6-50M644.2 684.8l46.6-50M597.6 684.8l46.6-50M553 684.8l46.6-50M686.8 684.8l46.6-50M735.1 684.8l46.6-50"/></g></svg>